<svg xmlns="http://www.w3.org/2000/svg" xmlns:s="https://github.com/nturley/netlistsvg" xmlns:xlink="http://www.w3.org/1999/xlink" width="221" height="119.5"><style>svg{stroke:#000;fill:none}text{fill:#000;stroke:none;font-size:10px;font-weight:700;font-family:&quot;Courier New&quot;,monospace}.nodelabel{text-anchor:middle}.inputPortLabel{text-anchor:end}</style><g id="cell_dlatch0" transform="translate(102,22)" s:height="40" s:type="generic" s:width="30"><text x="15" y="-4" class="nodelabel cell_dlatch0" s:attribute="ref">udp_dlatch$P</text><rect width="30" height="40" class="cell_dlatch0" s:generic="body"/><g id="port_dlatch0~D" s:pid="in0" s:x="0" s:y="10"><text x="-3" y="-4" class="inputPortLabel cell_dlatch0" transform="translate(0,10)">D</text></g><g id="port_dlatch0~GATE" s:pid="in0" s:x="0" s:y="10"><text x="-3" y="-4" class="inputPortLabel cell_dlatch0" transform="translate(0,30)">GATE</text></g><g id="port_dlatch0~Q" s:pid="out0" s:x="30" s:y="10"><text x="5" y="-4" class="cell_dlatch0" transform="translate(30,10)" style="fill:#000;stroke:none">Q</text></g></g><g id="cell_Q" transform="translate(179,22.5)" s:height="20" s:type="outputExt" s:width="30"><text x="15" y="-4" class="nodelabel cell_Q" s:attribute="ref">Q</text><s:alias val="$_outputExt_"/><path d="M30,0 L30,20 L15,20 L0,10 L15,0 Z" class="cell_Q"/></g><g id="cell_D" transform="translate(12,22.5)" s:height="20" s:type="inputExt" s:width="30"><text x="15" y="-4" class="nodelabel cell_D" s:attribute="ref">D</text><s:alias val="$_inputExt_"/><path d="M0,0 L0,20 L15,20 L30,10 L15,0 Z" class="cell_D"/></g><g id="cell_GATE" transform="translate(12,87.5)" s:height="20" s:type="inputExt" s:width="30"><text x="15" y="-4" class="nodelabel cell_GATE" s:attribute="ref">GATE</text><s:alias val="$_inputExt_"/><path d="M0,0 L0,20 L15,20 L30,10 L15,0 Z" class="cell_GATE"/></g><line x1="40" x2="102" y1="32.5" y2="32.5" class="net_3"/><line x1="40" x2="52" y1="97.5" y2="97.5" class="net_4"/><line x1="52" x2="52" y1="97.5" y2="52.5" class="net_4"/><line x1="52" x2="102" y1="52.5" y2="52.5" class="net_4"/><line x1="133" x2="179" y1="32.5" y2="32.5" class="net_2"/></svg>