<svg xmlns="http://www.w3.org/2000/svg" xmlns:s="https://github.com/nturley/netlistsvg" xmlns:xlink="http://www.w3.org/1999/xlink" width="314" height="129"><style>svg{stroke:#000;fill:none}text{fill:#000;stroke:none;font-size:10px;font-weight:700;font-family:&quot;Courier New&quot;,monospace}.nodelabel{text-anchor:middle}</style><g id="cell_$and$./cells/and3b/sky130_fd_sc_ms__and3b.functional.v:52$2" transform="translate(142,27)" s:height="25" s:type="and" s:width="30"><s:alias val="$and"/><s:alias val="$logic_and"/><s:alias val="$_AND_"/><path d="M0,0 L0,25 L15,25 A15 12.5 0 0 0 15,0 Z" class="cell_$and$./cells/and3b/sky130_fd_sc_ms__and3b.functional.v:52$2"/></g><g id="cell_$and$./cells/and3b/sky130_fd_sc_ms__and3b.functional.v:52$3" transform="translate(207,34.5)" s:height="25" s:type="and" s:width="30"><s:alias val="$and"/><s:alias val="$logic_and"/><s:alias val="$_AND_"/><path d="M0,0 L0,25 L15,25 A15 12.5 0 0 0 15,0 Z" class="cell_$and$./cells/and3b/sky130_fd_sc_ms__and3b.functional.v:52$3"/></g><g id="cell_$not$./cells/and3b/sky130_fd_sc_ms__and3b.functional.v:0$1" transform="translate(77,77)" s:height="20" s:type="not" s:width="30"><s:alias val="$_NOT_"/><s:alias val="$not"/><path d="M0,0 L0,20 L20,10 Z" class="cell_$not$./cells/and3b/sky130_fd_sc_ms__and3b.functional.v:0$1"/><circle cx="23" cy="10" r="3" class="cell_$not$./cells/and3b/sky130_fd_sc_ms__and3b.functional.v:0$1"/></g><g id="cell_X" transform="translate(272,37)" s:height="20" s:type="outputExt" s:width="30"><text x="15" y="-4" class="nodelabel cell_X" s:attribute="ref">X</text><s:alias val="$_outputExt_"/><path d="M30,0 L30,20 L15,20 L0,10 L15,0 Z" class="cell_X"/></g><g id="cell_A_N" transform="translate(12,77)" s:height="20" s:type="inputExt" s:width="30"><text x="15" y="-4" class="nodelabel cell_A_N" s:attribute="ref">A_N</text><s:alias val="$_inputExt_"/><path d="M0,0 L0,20 L15,20 L30,10 L15,0 Z" class="cell_A_N"/></g><g id="cell_B" transform="translate(142,97)" s:height="20" s:type="inputExt" s:width="30"><text x="15" y="-4" class="nodelabel cell_B" s:attribute="ref">B</text><s:alias val="$_inputExt_"/><path d="M0,0 L0,20 L15,20 L30,10 L15,0 Z" class="cell_B"/></g><g id="cell_C" transform="translate(77,22)" s:height="20" s:type="inputExt" s:width="30"><text x="15" y="-4" class="nodelabel cell_C" s:attribute="ref">C</text><s:alias val="$_inputExt_"/><path d="M0,0 L0,20 L15,20 L30,10 L15,0 Z" class="cell_C"/></g><line x1="105" x2="142" y1="32" y2="32" class="net_5"/><line x1="102" x2="117" y1="87" y2="87" class="net_6"/><line x1="117" x2="117" y1="87" y2="47" class="net_6"/><line x1="117" x2="142" y1="47" y2="47" class="net_6"/><line x1="172" x2="207" y1="39.5" y2="39.5" class="net_7"/><line x1="170" x2="182" y1="107" y2="107" class="net_4"/><line x1="182" x2="182" y1="107" y2="54.5" class="net_4"/><line x1="182" x2="207" y1="54.5" y2="54.5" class="net_4"/><line x1="40" x2="77" y1="87" y2="87" class="net_3"/><line x1="237" x2="272" y1="47" y2="47" class="net_2"/></svg>