<svg xmlns="http://www.w3.org/2000/svg" xmlns:s="https://github.com/nturley/netlistsvg" xmlns:xlink="http://www.w3.org/1999/xlink" width="314" height="179"><style>svg{stroke:#000;fill:none}text{fill:#000;stroke:none;font-size:10px;font-weight:700;font-family:&quot;Courier New&quot;,monospace}.nodelabel{text-anchor:middle}</style><g id="cell_$and$./cells/maj3/sky130_fd_sc_ms__maj3.functional.v:54$2" transform="translate(142,137)" s:height="25" s:type="and" s:width="30"><s:alias val="$and"/><s:alias val="$logic_and"/><s:alias val="$_AND_"/><path d="M0,0 L0,25 L15,25 A15 12.5 0 0 0 15,0 Z" class="cell_$and$./cells/maj3/sky130_fd_sc_ms__maj3.functional.v:54$2"/></g><g id="cell_$and$./cells/maj3/sky130_fd_sc_ms__maj3.functional.v:55$3" transform="translate(142,12)" s:height="25" s:type="and" s:width="30"><s:alias val="$and"/><s:alias val="$logic_and"/><s:alias val="$_AND_"/><path d="M0,0 L0,25 L15,25 A15 12.5 0 0 0 15,0 Z" class="cell_$and$./cells/maj3/sky130_fd_sc_ms__maj3.functional.v:55$3"/></g><g id="cell_$or$./cells/maj3/sky130_fd_sc_ms__maj3.functional.v:53$1" transform="translate(77,77)" s:height="25" s:type="or" s:width="30"><s:alias val="$or"/><s:alias val="$logic_or"/><s:alias val="$_OR_"/><path d="M0,25 L0,25 L15,25 A15 12.5 0 0 0 15,0 L0,0" class="cell_$or$./cells/maj3/sky130_fd_sc_ms__maj3.functional.v:53$1"/><path d="M0,0 A30 25 0 0 1 0,25" class="cell_$or$./cells/maj3/sky130_fd_sc_ms__maj3.functional.v:53$1"/></g><g id="cell_$or$./cells/maj3/sky130_fd_sc_ms__maj3.functional.v:56$4" transform="translate(207,129.5)" s:height="25" s:type="or" s:width="30"><s:alias val="$or"/><s:alias val="$logic_or"/><s:alias val="$_OR_"/><path d="M0,25 L0,25 L15,25 A15 12.5 0 0 0 15,0 L0,0" class="cell_$or$./cells/maj3/sky130_fd_sc_ms__maj3.functional.v:56$4"/><path d="M0,0 A30 25 0 0 1 0,25" class="cell_$or$./cells/maj3/sky130_fd_sc_ms__maj3.functional.v:56$4"/></g><g id="cell_X" transform="translate(272,132)" s:height="20" s:type="outputExt" s:width="30"><text x="15" y="-4" class="nodelabel cell_X" s:attribute="ref">X</text><s:alias val="$_outputExt_"/><path d="M30,0 L30,20 L15,20 L0,10 L15,0 Z" class="cell_X"/></g><g id="cell_A" transform="translate(12,87)" s:height="20" s:type="inputExt" s:width="30"><text x="15" y="-4" class="nodelabel cell_A" s:attribute="ref">A</text><s:alias val="$_inputExt_"/><path d="M0,0 L0,20 L15,20 L30,10 L15,0 Z" class="cell_A"/></g><g id="cell_B" transform="translate(12,22)" s:height="20" s:type="inputExt" s:width="30"><text x="15" y="-4" class="nodelabel cell_B" s:attribute="ref">B</text><s:alias val="$_inputExt_"/><path d="M0,0 L0,20 L15,20 L30,10 L15,0 Z" class="cell_B"/></g><g id="cell_C" transform="translate(77,147)" s:height="20" s:type="inputExt" s:width="30"><text x="15" y="-4" class="nodelabel cell_C" s:attribute="ref">C</text><s:alias val="$_inputExt_"/><path d="M0,0 L0,20 L15,20 L30,10 L15,0 Z" class="cell_C"/></g><line x1="107" x2="117" y1="89.5" y2="89.5" class="net_6"/><line x1="117" x2="117" y1="89.5" y2="142" class="net_6"/><line x1="117" x2="142" y1="142" y2="142" class="net_6"/><line x1="105" x2="142" y1="157" y2="157" class="net_5"/><line x1="40" x2="52" y1="97" y2="97" class="net_3"/><line x1="52" x2="52" y1="97" y2="21" class="net_3"/><line x1="52" x2="117" y1="21" y2="21" class="net_3"/><line x1="117" x2="117" y1="21" y2="17" class="net_3"/><circle cx="52" cy="97" r="2" class="net_3" style="fill:#000"/><line x1="117" x2="142" y1="17" y2="17" class="net_3"/><line x1="40" x2="80" y1="97" y2="97" class="net_3"/><line x1="40" x2="142" y1="32" y2="32" class="net_4"/><line x1="40" x2="62" y1="32" y2="32" class="net_4"/><line x1="62" x2="62" y1="32" y2="82" class="net_4"/><circle cx="62" cy="32" r="2" class="net_4" style="fill:#000"/><line x1="62" x2="80" y1="82" y2="82" class="net_4"/><line x1="172" x2="182" y1="24.5" y2="24.5" class="net_8"/><line x1="182" x2="182" y1="24.5" y2="134.5" class="net_8"/><line x1="182" x2="210" y1="134.5" y2="134.5" class="net_8"/><line x1="172" x2="210" y1="149.5" y2="149.5" class="net_7"/><line x1="237" x2="272" y1="142" y2="142" class="net_2"/></svg>