<svg xmlns="http://www.w3.org/2000/svg" xmlns:s="https://github.com/nturley/netlistsvg" xmlns:xlink="http://www.w3.org/1999/xlink" width="187" height="129"><style>svg{stroke:#000;fill:none}text{fill:#000;stroke:none;font-size:10px;font-weight:700;font-family:&quot;Courier New&quot;,monospace}.nodelabel{text-anchor:middle}</style><g id="cell_$and$./cells/ha/sky130_fd_sc_ms__ha.functional.v:51$1" transform="translate(78,92)" s:height="25" s:type="and" s:width="30"><s:alias val="$and"/><s:alias val="$logic_and"/><s:alias val="$_AND_"/><path d="M0,0 L0,25 L15,25 A15 12.5 0 0 0 15,0 Z" class="cell_$and$./cells/ha/sky130_fd_sc_ms__ha.functional.v:51$1"/></g><g id="cell_$xor$./cells/ha/sky130_fd_sc_ms__ha.functional.v:53$2" transform="translate(77,27)" s:height="25" s:type="reduce_xor" s:width="33"><s:alias val="$xor"/><s:alias val="$reduce_xor"/><s:alias val="$_XOR_"/><path d="M3,0 A30 25 0 0 1 3,25 A30 25 0 0 0 33,12.5 A30 25 0 0 0 3,0" class="cell_$xor$./cells/ha/sky130_fd_sc_ms__ha.functional.v:53$2"/><path d="M0,0 A30 25 0 0 1 0,25" class="cell_$xor$./cells/ha/sky130_fd_sc_ms__ha.functional.v:53$2"/></g><g id="cell_COUT" transform="translate(145,94.5)" s:height="20" s:type="outputExt" s:width="30"><text x="15" y="-4" class="nodelabel cell_COUT" s:attribute="ref">COUT</text><s:alias val="$_outputExt_"/><path d="M30,0 L30,20 L15,20 L0,10 L15,0 Z" class="cell_COUT"/></g><g id="cell_SUM" transform="translate(145,29.5)" s:height="20" s:type="outputExt" s:width="30"><text x="15" y="-4" class="nodelabel cell_SUM" s:attribute="ref">SUM</text><s:alias val="$_outputExt_"/><path d="M30,0 L30,20 L15,20 L0,10 L15,0 Z" class="cell_SUM"/></g><g id="cell_A" transform="translate(12,87)" s:height="20" s:type="inputExt" s:width="30"><text x="15" y="-4" class="nodelabel cell_A" s:attribute="ref">A</text><s:alias val="$_inputExt_"/><path d="M0,0 L0,20 L15,20 L30,10 L15,0 Z" class="cell_A"/></g><g id="cell_B" transform="translate(12,22)" s:height="20" s:type="inputExt" s:width="30"><text x="15" y="-4" class="nodelabel cell_B" s:attribute="ref">B</text><s:alias val="$_inputExt_"/><path d="M0,0 L0,20 L15,20 L30,10 L15,0 Z" class="cell_B"/></g><line x1="40" x2="78" y1="97" y2="97" class="net_4"/><line x1="40" x2="62" y1="97" y2="97" class="net_4"/><line x1="62" x2="62" y1="97" y2="47" class="net_4"/><circle cx="62" cy="97" r="2" class="net_4" style="fill:#000"/><line x1="62" x2="80" y1="47" y2="47" class="net_4"/><line x1="40" x2="52" y1="32" y2="32" class="net_5"/><line x1="52" x2="52" y1="32" y2="112" class="net_5"/><circle cx="52" cy="32" r="2" class="net_5" style="fill:#000"/><line x1="52" x2="78" y1="112" y2="112" class="net_5"/><line x1="40" x2="80" y1="32" y2="32" class="net_5"/><line x1="108" x2="145" y1="104.5" y2="104.5" class="net_2"/><line x1="110" x2="145" y1="39.5" y2="39.5" class="net_3"/></svg>