<svg xmlns="http://www.w3.org/2000/svg" xmlns:xlink="http://www.w3.org/1999/xlink" width="211" height="168" version="1.1" viewBox="-25 -56 211 168" xml:space="preserve"><style type="text/css">.fnt1{fill:#000;font-family:Times;font-style:italic}.fnt1,.fnt2{font-size:12pt;font-weight:400}.fnt2,.fnt3,.fnt4{fill:#000;font-family:Helvetica;font-style:normal}.fnt3{font-size:16pt;font-weight:700}.fnt4{font-size:10pt}</style><rect width="100%" height="100%" x="-25" y="-56" fill="#fff"/><g transform="translate(0,0)"><rect width="160" height="105" x="0" y="-21" fill="#CCFED2" stroke="#000" stroke-width="1"/><text x="80" y="-5" class="fnt1" dy="5.5" text-anchor="middle">Data Signals</text><g transform="translate(0,19)"><line x1="-20" x2="0" y1="0" y2="0" fill="none" stroke="#000" stroke-width="1"/><text x="10" y="0" class="fnt2" dy="5.5" text-anchor="normal">A</text></g><g transform="translate(0,41)"><line x1="-20" x2="0" y1="0" y2="0" fill="none" stroke="#000" stroke-width="1"/><text x="10" y="0" class="fnt2" dy="5.5" text-anchor="normal">B</text></g><g transform="translate(0,63)"><line x1="-20" x2="0" y1="0" y2="0" fill="none" stroke="#000" stroke-width="1"/><text x="10" y="0" class="fnt2" dy="5.5" text-anchor="normal">CIN</text></g><g transform="translate(160,19)"><line x1="20" x2="0" y1="0" y2="0" fill="none" stroke="#000" stroke-width="1"/><text x="-10" y="0" class="fnt2" dy="5.5" text-anchor="end">COUT</text></g><g transform="translate(160,41)"><line x1="20" x2="0" y1="0" y2="0" fill="none" stroke="#000" stroke-width="1"/><text x="-10" y="0" class="fnt2" dy="5.5" text-anchor="end">SUM</text></g></g><rect width="158" height="103" x="1" y="-20" fill="none" stroke="#000" stroke-width="3"/><text x="80" y="-30" class="fnt3" dy="-1" text-anchor="middle">fa</text><text x="80" y="103" class="fnt4" dy="1" text-anchor="middle">sky130_fd_sc_ms</text></svg>