<svg xmlns="http://www.w3.org/2000/svg" xmlns:s="https://github.com/nturley/netlistsvg" xmlns:xlink="http://www.w3.org/1999/xlink" width="314" height="249"><style>svg{stroke:#000;fill:none}text{fill:#000;stroke:none;font-size:10px;font-weight:700;font-family:&quot;Courier New&quot;,monospace}.nodelabel{text-anchor:middle}</style><g id="cell_$and$./cells/a2111o/sky130_fd_sc_ms__a2111o.functional.v:57$1" transform="translate(77,157)" s:height="25" s:type="and" s:width="30"><s:alias val="$and"/><s:alias val="$logic_and"/><s:alias val="$_AND_"/><path d="M0,0 L0,25 L15,25 A15 12.5 0 0 0 15,0 Z" class="cell_$and$./cells/a2111o/sky130_fd_sc_ms__a2111o.functional.v:57$1"/></g><g id="cell_$or$./cells/a2111o/sky130_fd_sc_ms__a2111o.functional.v:58$2" transform="translate(77,27)" s:height="25" s:type="or" s:width="30"><s:alias val="$or"/><s:alias val="$logic_or"/><s:alias val="$_OR_"/><path d="M0,25 L0,25 L15,25 A15 12.5 0 0 0 15,0 L0,0" class="cell_$or$./cells/a2111o/sky130_fd_sc_ms__a2111o.functional.v:58$2"/><path d="M0,0 A30 25 0 0 1 0,25" class="cell_$or$./cells/a2111o/sky130_fd_sc_ms__a2111o.functional.v:58$2"/></g><g id="cell_$or$./cells/a2111o/sky130_fd_sc_ms__a2111o.functional.v:58$3" transform="translate(142,34.5)" s:height="25" s:type="or" s:width="30"><s:alias val="$or"/><s:alias val="$logic_or"/><s:alias val="$_OR_"/><path d="M0,25 L0,25 L15,25 A15 12.5 0 0 0 15,0 L0,0" class="cell_$or$./cells/a2111o/sky130_fd_sc_ms__a2111o.functional.v:58$3"/><path d="M0,0 A30 25 0 0 1 0,25" class="cell_$or$./cells/a2111o/sky130_fd_sc_ms__a2111o.functional.v:58$3"/></g><g id="cell_$or$./cells/a2111o/sky130_fd_sc_ms__a2111o.functional.v:58$4" transform="translate(207,42)" s:height="25" s:type="or" s:width="30"><s:alias val="$or"/><s:alias val="$logic_or"/><s:alias val="$_OR_"/><path d="M0,25 L0,25 L15,25 A15 12.5 0 0 0 15,0 L0,0" class="cell_$or$./cells/a2111o/sky130_fd_sc_ms__a2111o.functional.v:58$4"/><path d="M0,0 A30 25 0 0 1 0,25" class="cell_$or$./cells/a2111o/sky130_fd_sc_ms__a2111o.functional.v:58$4"/></g><g id="cell_X" transform="translate(272,44.5)" s:height="20" s:type="outputExt" s:width="30"><text x="15" y="-4" class="nodelabel cell_X" s:attribute="ref">X</text><s:alias val="$_outputExt_"/><path d="M30,0 L30,20 L15,20 L0,10 L15,0 Z" class="cell_X"/></g><g id="cell_A1" transform="translate(12,152)" s:height="20" s:type="inputExt" s:width="30"><text x="15" y="-4" class="nodelabel cell_A1" s:attribute="ref">A1</text><s:alias val="$_inputExt_"/><path d="M0,0 L0,20 L15,20 L30,10 L15,0 Z" class="cell_A1"/></g><g id="cell_A2" transform="translate(12,217)" s:height="20" s:type="inputExt" s:width="30"><text x="15" y="-4" class="nodelabel cell_A2" s:attribute="ref">A2</text><s:alias val="$_inputExt_"/><path d="M0,0 L0,20 L15,20 L30,10 L15,0 Z" class="cell_A2"/></g><g id="cell_B1" transform="translate(12,87)" s:height="20" s:type="inputExt" s:width="30"><text x="15" y="-4" class="nodelabel cell_B1" s:attribute="ref">B1</text><s:alias val="$_inputExt_"/><path d="M0,0 L0,20 L15,20 L30,10 L15,0 Z" class="cell_B1"/></g><g id="cell_C1" transform="translate(12,22)" s:height="20" s:type="inputExt" s:width="30"><text x="15" y="-4" class="nodelabel cell_C1" s:attribute="ref">C1</text><s:alias val="$_inputExt_"/><path d="M0,0 L0,20 L15,20 L30,10 L15,0 Z" class="cell_C1"/></g><g id="cell_D1" transform="translate(142,104.5)" s:height="20" s:type="inputExt" s:width="30"><text x="15" y="-4" class="nodelabel cell_D1" s:attribute="ref">D1</text><s:alias val="$_inputExt_"/><path d="M0,0 L0,20 L15,20 L30,10 L15,0 Z" class="cell_D1"/></g><line x1="40" x2="77" y1="162" y2="162" class="net_3"/><line x1="40" x2="52" y1="227" y2="227" class="net_4"/><line x1="52" x2="52" y1="227" y2="177" class="net_4"/><line x1="52" x2="77" y1="177" y2="177" class="net_4"/><line x1="40" x2="80" y1="32" y2="32" class="net_6"/><line x1="40" x2="52" y1="97" y2="97" class="net_5"/><line x1="52" x2="52" y1="97" y2="47" class="net_5"/><line x1="52" x2="80" y1="47" y2="47" class="net_5"/><line x1="107" x2="145" y1="39.5" y2="39.5" class="net_9"/><line x1="107" x2="117" y1="169.5" y2="169.5" class="net_8"/><line x1="117" x2="117" y1="169.5" y2="54.5" class="net_8"/><line x1="117" x2="145" y1="54.5" y2="54.5" class="net_8"/><line x1="172" x2="210" y1="47" y2="47" class="net_10"/><line x1="170" x2="182" y1="114.5" y2="114.5" class="net_7"/><line x1="182" x2="182" y1="114.5" y2="62" class="net_7"/><line x1="182" x2="210" y1="62" y2="62" class="net_7"/><line x1="237" x2="272" y1="54.5" y2="54.5" class="net_2"/></svg>