<svg xmlns="http://www.w3.org/2000/svg" xmlns:s="https://github.com/nturley/netlistsvg" xmlns:xlink="http://www.w3.org/1999/xlink" width="337" height="314"><style>svg{stroke:#000;fill:none}text{fill:#000;stroke:none;font-size:10px;font-weight:700;font-family:&quot;Courier New&quot;,monospace}.nodelabel{text-anchor:middle}.inputPortLabel{text-anchor:end}</style><g id="cell_$not$./cells/sdfrtn/sky130_fd_sc_ms__sdfrtn.functional.v:0$1" transform="translate(107.5,282)" s:height="20" s:type="not" s:width="30"><s:alias val="$_NOT_"/><s:alias val="$not"/><path d="M0,0 L0,20 L20,10 Z" class="cell_$not$./cells/sdfrtn/sky130_fd_sc_ms__sdfrtn.functional.v:0$1"/><circle cx="23" cy="10" r="3" class="cell_$not$./cells/sdfrtn/sky130_fd_sc_ms__sdfrtn.functional.v:0$1"/></g><g id="cell_$not$./cells/sdfrtn/sky130_fd_sc_ms__sdfrtn.functional.v:0$2" transform="translate(107.5,22)" s:height="20" s:type="not" s:width="30"><s:alias val="$_NOT_"/><s:alias val="$not"/><path d="M0,0 L0,20 L20,10 Z" class="cell_$not$./cells/sdfrtn/sky130_fd_sc_ms__sdfrtn.functional.v:0$2"/><circle cx="23" cy="10" r="3" class="cell_$not$./cells/sdfrtn/sky130_fd_sc_ms__sdfrtn.functional.v:0$2"/></g><g id="cell_dff0" transform="translate(222,111.5)" s:height="40" s:type="generic" s:width="30"><text x="15" y="-4" class="nodelabel cell_dff0" s:attribute="ref">udp_dff$PR</text><rect width="30" height="60" class="cell_dff0" s:generic="body"/><g id="port_dff0~CLK" s:pid="in0" s:x="0" s:y="10"><text x="-3" y="-4" class="inputPortLabel cell_dff0" transform="translate(0,10)">CLK</text></g><g id="port_dff0~D" s:pid="in0" s:x="0" s:y="10"><text x="-3" y="-4" class="inputPortLabel cell_dff0" transform="translate(0,30)">D</text></g><g id="port_dff0~RESET" s:pid="in0" s:x="0" s:y="10"><text x="-3" y="-4" class="inputPortLabel cell_dff0" transform="translate(0,50)">RESET</text></g><g id="port_dff0~Q" s:pid="out0" s:x="30" s:y="10"><text x="5" y="-4" class="cell_dff0" transform="translate(30,10)" style="fill:#000;stroke:none">Q</text></g></g><g id="cell_mux_2to10" transform="translate(102,131.5)" s:height="40" s:type="generic" s:width="30"><text x="15" y="-4" class="nodelabel cell_mux_2to10" s:attribute="ref">udp_mux_2to1</text><rect width="30" height="60" class="cell_mux_2to10" s:generic="body"/><g id="port_mux_2to10~A0" s:pid="in0" s:x="0" s:y="10"><text x="-3" y="-4" class="inputPortLabel cell_mux_2to10" transform="translate(0,10)">A0</text></g><g id="port_mux_2to10~A1" s:pid="in0" s:x="0" s:y="10"><text x="-3" y="-4" class="inputPortLabel cell_mux_2to10" transform="translate(0,30)">A1</text></g><g id="port_mux_2to10~S" s:pid="in0" s:x="0" s:y="10"><text x="-3" y="-4" class="inputPortLabel cell_mux_2to10" transform="translate(0,50)">S</text></g><g id="port_mux_2to10~X" s:pid="out0" s:x="30" s:y="10"><text x="5" y="-4" class="cell_mux_2to10" transform="translate(30,10)" style="fill:#000;stroke:none">X</text></g></g><g id="cell_Q" transform="translate(295,112)" s:height="20" s:type="outputExt" s:width="30"><text x="15" y="-4" class="nodelabel cell_Q" s:attribute="ref">Q</text><s:alias val="$_outputExt_"/><path d="M30,0 L30,20 L15,20 L0,10 L15,0 Z" class="cell_Q"/></g><g id="cell_CLK_N" transform="translate(12,22)" s:height="20" s:type="inputExt" s:width="30"><text x="15" y="-4" class="nodelabel cell_CLK_N" s:attribute="ref">CLK_N</text><s:alias val="$_inputExt_"/><path d="M0,0 L0,20 L15,20 L30,10 L15,0 Z" class="cell_CLK_N"/></g><g id="cell_D" transform="translate(12,87)" s:height="20" s:type="inputExt" s:width="30"><text x="15" y="-4" class="nodelabel cell_D" s:attribute="ref">D</text><s:alias val="$_inputExt_"/><path d="M0,0 L0,20 L15,20 L30,10 L15,0 Z" class="cell_D"/></g><g id="cell_SCD" transform="translate(12,152)" s:height="20" s:type="inputExt" s:width="30"><text x="15" y="-4" class="nodelabel cell_SCD" s:attribute="ref">SCD</text><s:alias val="$_inputExt_"/><path d="M0,0 L0,20 L15,20 L30,10 L15,0 Z" class="cell_SCD"/></g><g id="cell_SCE" transform="translate(12,217)" s:height="20" s:type="inputExt" s:width="30"><text x="15" y="-4" class="nodelabel cell_SCE" s:attribute="ref">SCE</text><s:alias val="$_inputExt_"/><path d="M0,0 L0,20 L15,20 L30,10 L15,0 Z" class="cell_SCE"/></g><g id="cell_RESET_B" transform="translate(12,282)" s:height="20" s:type="inputExt" s:width="30"><text x="15" y="-4" class="nodelabel cell_RESET_B" s:attribute="ref">RESET_B</text><s:alias val="$_inputExt_"/><path d="M0,0 L0,20 L15,20 L30,10 L15,0 Z" class="cell_RESET_B"/></g><line x1="40" x2="107.5" y1="292" y2="292" class="net_7"/><line x1="40" x2="107.5" y1="32" y2="32" class="net_3"/><line x1="132.5" x2="166" y1="32" y2="32" class="net_9"/><line x1="166" x2="166" y1="32" y2="122" class="net_9"/><line x1="166" x2="222" y1="122" y2="122" class="net_9"/><line x1="133" x2="222" y1="142" y2="142" class="net_10"/><line x1="132.5" x2="166" y1="292" y2="292" class="net_8"/><line x1="166" x2="166" y1="292" y2="162" class="net_8"/><line x1="166" x2="222" y1="162" y2="162" class="net_8"/><line x1="40" x2="64" y1="97" y2="97" class="net_4"/><line x1="64" x2="64" y1="97" y2="142" class="net_4"/><line x1="64" x2="102" y1="142" y2="142" class="net_4"/><line x1="40" x2="102" y1="162" y2="162" class="net_5"/><line x1="40" x2="64" y1="227" y2="227" class="net_6"/><line x1="64" x2="64" y1="227" y2="182" class="net_6"/><line x1="64" x2="102" y1="182" y2="182" class="net_6"/><line x1="253" x2="295" y1="122" y2="122" class="net_2"/></svg>