<svg xmlns="http://www.w3.org/2000/svg" xmlns:s="https://github.com/nturley/netlistsvg" xmlns:xlink="http://www.w3.org/1999/xlink" width="351" height="120.5"><style>svg{stroke:#000;fill:none}text{fill:#000;stroke:none;font-size:10px;font-weight:700;font-family:&quot;Courier New&quot;,monospace}.nodelabel{text-anchor:middle}.inputPortLabel{text-anchor:end}</style><g id="cell_$and$./cells/dlclkp/sky130_fd_sc_ms__dlclkp.functional.v:54$2" transform="translate(244,27.5)" s:height="25" s:type="and" s:width="30"><s:alias val="$and"/><s:alias val="$logic_and"/><s:alias val="$_AND_"/><path d="M0,0 L0,25 L15,25 A15 12.5 0 0 0 15,0 Z" class="cell_$and$./cells/dlclkp/sky130_fd_sc_ms__dlclkp.functional.v:54$2"/></g><g id="cell_$not$./cells/dlclkp/sky130_fd_sc_ms__dlclkp.functional.v:0$1" transform="translate(77,77.5)" s:height="20" s:type="not" s:width="30"><s:alias val="$_NOT_"/><s:alias val="$not"/><path d="M0,0 L0,20 L20,10 Z" class="cell_$not$./cells/dlclkp/sky130_fd_sc_ms__dlclkp.functional.v:0$1"/><circle cx="23" cy="10" r="3" class="cell_$not$./cells/dlclkp/sky130_fd_sc_ms__dlclkp.functional.v:0$1"/></g><g id="cell_dlatch0" transform="translate(167,22)" s:height="40" s:type="generic" s:width="30"><text x="15" y="-4" class="nodelabel cell_dlatch0" s:attribute="ref">udp_dlatch$P</text><rect width="30" height="40" class="cell_dlatch0" s:generic="body"/><g id="port_dlatch0~D" s:pid="in0" s:x="0" s:y="10"><text x="-3" y="-4" class="inputPortLabel cell_dlatch0" transform="translate(0,10)">D</text></g><g id="port_dlatch0~GATE" s:pid="in0" s:x="0" s:y="10"><text x="-3" y="-4" class="inputPortLabel cell_dlatch0" transform="translate(0,30)">GATE</text></g><g id="port_dlatch0~Q" s:pid="out0" s:x="30" s:y="10"><text x="5" y="-4" class="cell_dlatch0" transform="translate(30,10)" style="fill:#000;stroke:none">Q</text></g></g><g id="cell_GCLK" transform="translate(309,30)" s:height="20" s:type="outputExt" s:width="30"><text x="15" y="-4" class="nodelabel cell_GCLK" s:attribute="ref">GCLK</text><s:alias val="$_outputExt_"/><path d="M30,0 L30,20 L15,20 L0,10 L15,0 Z" class="cell_GCLK"/></g><g id="cell_GATE" transform="translate(77,22.5)" s:height="20" s:type="inputExt" s:width="30"><text x="15" y="-4" class="nodelabel cell_GATE" s:attribute="ref">GATE</text><s:alias val="$_inputExt_"/><path d="M0,0 L0,20 L15,20 L30,10 L15,0 Z" class="cell_GATE"/></g><g id="cell_CLK" transform="translate(12,77.5)" s:height="20" s:type="inputExt" s:width="30"><text x="15" y="-4" class="nodelabel cell_CLK" s:attribute="ref">CLK</text><s:alias val="$_inputExt_"/><path d="M0,0 L0,20 L15,20 L30,10 L15,0 Z" class="cell_CLK"/></g><line x1="198" x2="244" y1="32.5" y2="32.5" class="net_5"/><line x1="40" x2="52" y1="87.5" y2="87.5" class="net_4"/><line x1="52" x2="52" y1="87.5" y2="107.5" class="net_4"/><line x1="52" x2="219" y1="107.5" y2="107.5" class="net_4"/><line x1="219" x2="219" y1="107.5" y2="47.5" class="net_4"/><circle cx="52" cy="87.5" r="2" class="net_4" style="fill:#000"/><line x1="219" x2="244" y1="47.5" y2="47.5" class="net_4"/><line x1="40" x2="77" y1="87.5" y2="87.5" class="net_4"/><line x1="105" x2="167" y1="32.5" y2="32.5" class="net_3"/><line x1="102" x2="117" y1="87.5" y2="87.5" class="net_6"/><line x1="117" x2="117" y1="87.5" y2="52.5" class="net_6"/><line x1="117" x2="167" y1="52.5" y2="52.5" class="net_6"/><line x1="274" x2="309" y1="40" y2="40" class="net_2"/></svg>