<svg xmlns="http://www.w3.org/2000/svg" xmlns:xlink="http://www.w3.org/1999/xlink" width="191" height="395" version="1.1" viewBox="-25 -56 191 395" xml:space="preserve"><style type="text/css">.fnt1{fill:#000;font-family:Times;font-style:italic}.fnt1,.fnt2,.fnt3{font-size:12pt;font-weight:400}.fnt2{fill:#000;font-family:Helvetica;font-style:normal}.fnt3{text-decoration:overline}.fnt3,.fnt4,.fnt5{fill:#000;font-family:Helvetica;font-style:normal}.fnt4{font-size:16pt;font-weight:700}.fnt5{font-size:10pt}</style><rect width="100%" height="100%" x="-25" y="-56" fill="#fff"/><g transform="translate(0,0)"><rect width="140" height="83" x="0" y="-21" fill="#CCFED2" stroke="#000" stroke-width="1"/><text x="70" y="-5" class="fnt1" dy="5.5" text-anchor="middle">Data Signals</text><g transform="translate(0,19)"><line x1="-20" x2="0" y1="0" y2="0" fill="none" stroke="#000" stroke-width="1"/><text x="10" y="0" class="fnt2" dy="5.5" text-anchor="normal">D</text></g><g transform="translate(140,19)"><line x1="20" x2="0" y1="0" y2="0" fill="none" stroke="#000" stroke-width="1"/><text x="-10" y="0" class="fnt2" dy="5.5" text-anchor="end">Q</text></g><g transform="translate(140,41)"><line x1="20" x2="0" y1="0" y2="0" fill="none" stroke="#000" stroke-width="1"/><ellipse cx="3" cy="0" fill="#FFF" stroke="#000" stroke-width="1" rx="3" ry="3"/><text x="-10" y="0" class="fnt3" dy="5.5" text-anchor="end">Q</text></g></g><g transform="translate(0,83.0)"><rect width="140" height="61" x="0" y="-21" fill="#FFF6B1" stroke="#000" stroke-width="1"/><text x="70" y="-5" class="fnt1" dy="5.5" text-anchor="middle">Control Signals</text><g transform="translate(0,19)"><line x1="-20" x2="0" y1="0" y2="0" fill="none" stroke="#000" stroke-width="1"/><ellipse cx="-3" cy="0" fill="#FFF" stroke="#000" stroke-width="1" rx="3" ry="3"/><text x="10" y="0" class="fnt3" dy="5.5" text-anchor="normal">RESET</text></g></g><g transform="translate(0,144.0)"><rect width="140" height="61" x="0" y="-21" fill="#FACEAD" stroke="#000" stroke-width="1"/><text x="70" y="-5" class="fnt1" dy="5.5" text-anchor="middle">Clocking</text><g transform="translate(0,19)"><line x1="-20" x2="0" y1="0" y2="0" fill="none" stroke="#000" stroke-width="1"/><ellipse cx="-3" cy="0" fill="#FFF" stroke="#000" stroke-width="1" rx="3" ry="3"/><text x="10" y="0" class="fnt3" dy="5.5" text-anchor="normal">GATE</text></g></g><g transform="translate(0,205.0)"><rect width="140" height="127" x="0" y="-21" fill="#FBB" stroke="#000" stroke-width="1"/><text x="70" y="-5" class="fnt1" dy="5.5" text-anchor="middle">Power</text><g transform="translate(0,19)"><line x1="-20" x2="0" y1="0" y2="0" fill="none" stroke="#000" stroke-width="1"/><text x="10" y="0" class="fnt2" dy="5.5" text-anchor="normal">VPB</text></g><g transform="translate(0,41)"><line x1="-20" x2="0" y1="0" y2="0" fill="none" stroke="#000" stroke-width="1"/><text x="10" y="0" class="fnt2" dy="5.5" text-anchor="normal">VPWR</text></g><g transform="translate(0,63)"><line x1="-20" x2="0" y1="0" y2="0" fill="none" stroke="#000" stroke-width="1"/><text x="10" y="0" class="fnt2" dy="5.5" text-anchor="normal">VGND</text></g><g transform="translate(0,85)"><line x1="-20" x2="0" y1="0" y2="0" fill="none" stroke="#000" stroke-width="1"/><text x="10" y="0" class="fnt2" dy="5.5" text-anchor="normal">VNB</text></g></g><rect width="138" height="330" x="1" y="-20" fill="none" stroke="#000" stroke-width="3"/><text x="70" y="-30" class="fnt4" dy="-1" text-anchor="middle">dlrbn</text><text x="70" y="330" class="fnt5" dy="1" text-anchor="middle">sky130_fd_sc_ms</text></svg>