<svg xmlns="http://www.w3.org/2000/svg" xmlns:s="https://github.com/nturley/netlistsvg" xmlns:xlink="http://www.w3.org/1999/xlink" width="138" height="138"><style>svg{stroke:#000;fill:none}text{fill:#000;stroke:none;font-size:10px;font-weight:700;font-family:&quot;Courier New&quot;,monospace}.nodelabel{text-anchor:middle}</style><g id="cell_X" transform="translate(12,22)" s:height="20" s:type="outputExt" s:width="30"><text x="15" y="-4" class="nodelabel cell_X" s:attribute="ref">X</text><s:alias val="$_outputExt_"/><path d="M30,0 L30,20 L15,20 L0,10 L15,0 Z" class="cell_X"/></g><g id="cell_A0" transform="translate(54,22)" s:height="20" s:type="inputExt" s:width="30"><text x="15" y="-4" class="nodelabel cell_A0" s:attribute="ref">A0</text><s:alias val="$_inputExt_"/><path d="M0,0 L0,20 L15,20 L30,10 L15,0 Z" class="cell_A0"/></g><g id="cell_A1" transform="translate(96,22)" s:height="20" s:type="inputExt" s:width="30"><text x="15" y="-4" class="nodelabel cell_A1" s:attribute="ref">A1</text><s:alias val="$_inputExt_"/><path d="M0,0 L0,20 L15,20 L30,10 L15,0 Z" class="cell_A1"/></g><g id="cell_A2" transform="translate(12,64)" s:height="20" s:type="inputExt" s:width="30"><text x="15" y="-4" class="nodelabel cell_A2" s:attribute="ref">A2</text><s:alias val="$_inputExt_"/><path d="M0,0 L0,20 L15,20 L30,10 L15,0 Z" class="cell_A2"/></g><g id="cell_A3" transform="translate(54,64)" s:height="20" s:type="inputExt" s:width="30"><text x="15" y="-4" class="nodelabel cell_A3" s:attribute="ref">A3</text><s:alias val="$_inputExt_"/><path d="M0,0 L0,20 L15,20 L30,10 L15,0 Z" class="cell_A3"/></g><g id="cell_S0" transform="translate(96,64)" s:height="20" s:type="inputExt" s:width="30"><text x="15" y="-4" class="nodelabel cell_S0" s:attribute="ref">S0</text><s:alias val="$_inputExt_"/><path d="M0,0 L0,20 L15,20 L30,10 L15,0 Z" class="cell_S0"/></g><g id="cell_S1" transform="translate(12,106)" s:height="20" s:type="inputExt" s:width="30"><text x="15" y="-4" class="nodelabel cell_S1" s:attribute="ref">S1</text><s:alias val="$_inputExt_"/><path d="M0,0 L0,20 L15,20 L30,10 L15,0 Z" class="cell_S1"/></g></svg>