<svg xmlns="http://www.w3.org/2000/svg" xmlns:s="https://github.com/nturley/netlistsvg" xmlns:xlink="http://www.w3.org/1999/xlink" width="221" height="184"><style>svg{stroke:#000;fill:none}text{fill:#000;stroke:none;font-size:10px;font-weight:700;font-family:&quot;Courier New&quot;,monospace}.nodelabel{text-anchor:middle}.inputPortLabel{text-anchor:end}</style><g id="cell_mux_2to10" transform="translate(90,66.5)" s:height="40" s:type="generic" s:width="30"><text x="15" y="-4" class="nodelabel cell_mux_2to10" s:attribute="ref">udp_mux_2to1</text><rect width="30" height="60" class="cell_mux_2to10" s:generic="body"/><g id="port_mux_2to10~A0" s:pid="in0" s:x="0" s:y="10"><text x="-3" y="-4" class="inputPortLabel cell_mux_2to10" transform="translate(0,10)">A0</text></g><g id="port_mux_2to10~A1" s:pid="in0" s:x="0" s:y="10"><text x="-3" y="-4" class="inputPortLabel cell_mux_2to10" transform="translate(0,30)">A1</text></g><g id="port_mux_2to10~S" s:pid="in0" s:x="0" s:y="10"><text x="-3" y="-4" class="inputPortLabel cell_mux_2to10" transform="translate(0,50)">S</text></g><g id="port_mux_2to10~X" s:pid="out0" s:x="30" s:y="10"><text x="5" y="-4" class="cell_mux_2to10" transform="translate(30,10)" style="fill:#000;stroke:none">X</text></g></g><g id="cell_X" transform="translate(179,67)" s:height="20" s:type="outputExt" s:width="30"><text x="15" y="-4" class="nodelabel cell_X" s:attribute="ref">X</text><s:alias val="$_outputExt_"/><path d="M30,0 L30,20 L15,20 L0,10 L15,0 Z" class="cell_X"/></g><g id="cell_A0" transform="translate(12,22)" s:height="20" s:type="inputExt" s:width="30"><text x="15" y="-4" class="nodelabel cell_A0" s:attribute="ref">A0</text><s:alias val="$_inputExt_"/><path d="M0,0 L0,20 L15,20 L30,10 L15,0 Z" class="cell_A0"/></g><g id="cell_A1" transform="translate(12,87)" s:height="20" s:type="inputExt" s:width="30"><text x="15" y="-4" class="nodelabel cell_A1" s:attribute="ref">A1</text><s:alias val="$_inputExt_"/><path d="M0,0 L0,20 L15,20 L30,10 L15,0 Z" class="cell_A1"/></g><g id="cell_S" transform="translate(12,152)" s:height="20" s:type="inputExt" s:width="30"><text x="15" y="-4" class="nodelabel cell_S" s:attribute="ref">S</text><s:alias val="$_inputExt_"/><path d="M0,0 L0,20 L15,20 L30,10 L15,0 Z" class="cell_S"/></g><line x1="40" x2="52" y1="32" y2="32" class="net_3"/><line x1="52" x2="52" y1="32" y2="77" class="net_3"/><line x1="52" x2="90" y1="77" y2="77" class="net_3"/><line x1="40" x2="90" y1="97" y2="97" class="net_4"/><line x1="40" x2="52" y1="162" y2="162" class="net_5"/><line x1="52" x2="52" y1="162" y2="117" class="net_5"/><line x1="52" x2="90" y1="117" y2="117" class="net_5"/><line x1="121" x2="179" y1="77" y2="77" class="net_2"/></svg>