<svg xmlns="http://www.w3.org/2000/svg" xmlns:s="https://github.com/nturley/netlistsvg" xmlns:xlink="http://www.w3.org/1999/xlink" width="481" height="140"><style>svg{stroke:#000;fill:none}text{fill:#000;stroke:none;font-size:10px;font-weight:700;font-family:&quot;Courier New&quot;,monospace}.nodelabel{text-anchor:middle}.inputPortLabel{text-anchor:end}</style><g id="cell_$and$./cells/sdlclkp/sky130_fd_sc_ms__sdlclkp.functional.v:60$5" transform="translate(374,34.5)" s:height="25" s:type="and" s:width="30"><s:alias val="$and"/><s:alias val="$logic_and"/><s:alias val="$_AND_"/><path d="M0,0 L0,25 L15,25 A15 12.5 0 0 0 15,0 Z" class="cell_$and$./cells/sdlclkp/sky130_fd_sc_ms__sdlclkp.functional.v:60$5"/></g><g id="cell_$not$./cells/sdlclkp/sky130_fd_sc_ms__sdlclkp.functional.v:0$1" transform="translate(309,29.5)" s:height="20" s:type="not" s:width="30"><s:alias val="$_NOT_"/><s:alias val="$not"/><path d="M0,0 L0,20 L20,10 Z" class="cell_$not$./cells/sdlclkp/sky130_fd_sc_ms__sdlclkp.functional.v:0$1"/><circle cx="23" cy="10" r="3" class="cell_$not$./cells/sdlclkp/sky130_fd_sc_ms__sdlclkp.functional.v:0$1"/></g><g id="cell_$not$./cells/sdlclkp/sky130_fd_sc_ms__sdlclkp.functional.v:0$2" transform="translate(142,97)" s:height="20" s:type="not" s:width="30"><s:alias val="$_NOT_"/><s:alias val="$not"/><path d="M0,0 L0,20 L20,10 Z" class="cell_$not$./cells/sdlclkp/sky130_fd_sc_ms__sdlclkp.functional.v:0$2"/><circle cx="23" cy="10" r="3" class="cell_$not$./cells/sdlclkp/sky130_fd_sc_ms__sdlclkp.functional.v:0$2"/></g><g id="cell_$not$./cells/sdlclkp/sky130_fd_sc_ms__sdlclkp.functional.v:0$4" transform="translate(142,29.5)" s:height="20" s:type="not" s:width="30"><s:alias val="$_NOT_"/><s:alias val="$not"/><path d="M0,0 L0,20 L20,10 Z" class="cell_$not$./cells/sdlclkp/sky130_fd_sc_ms__sdlclkp.functional.v:0$4"/><circle cx="23" cy="10" r="3" class="cell_$not$./cells/sdlclkp/sky130_fd_sc_ms__sdlclkp.functional.v:0$4"/></g><g id="cell_$or$./cells/sdlclkp/sky130_fd_sc_ms__sdlclkp.functional.v:58$3" transform="translate(77,27)" s:height="25" s:type="or" s:width="30"><s:alias val="$or"/><s:alias val="$logic_or"/><s:alias val="$_OR_"/><path d="M0,25 L0,25 L15,25 A15 12.5 0 0 0 15,0 L0,0" class="cell_$or$./cells/sdlclkp/sky130_fd_sc_ms__sdlclkp.functional.v:58$3"/><path d="M0,0 A30 25 0 0 1 0,25" class="cell_$or$./cells/sdlclkp/sky130_fd_sc_ms__sdlclkp.functional.v:58$3"/></g><g id="cell_dlatch0" transform="translate(232,29)" s:height="40" s:type="generic" s:width="30"><text x="15" y="-4" class="nodelabel cell_dlatch0" s:attribute="ref">udp_dlatch$P</text><rect width="30" height="40" class="cell_dlatch0" s:generic="body"/><g id="port_dlatch0~D" s:pid="in0" s:x="0" s:y="10"><text x="-3" y="-4" class="inputPortLabel cell_dlatch0" transform="translate(0,10)">D</text></g><g id="port_dlatch0~GATE" s:pid="in0" s:x="0" s:y="10"><text x="-3" y="-4" class="inputPortLabel cell_dlatch0" transform="translate(0,30)">GATE</text></g><g id="port_dlatch0~Q" s:pid="out0" s:x="30" s:y="10"><text x="5" y="-4" class="cell_dlatch0" transform="translate(30,10)" style="fill:#000;stroke:none">Q</text></g></g><g id="cell_GCLK" transform="translate(439,37)" s:height="20" s:type="outputExt" s:width="30"><text x="15" y="-4" class="nodelabel cell_GCLK" s:attribute="ref">GCLK</text><s:alias val="$_outputExt_"/><path d="M30,0 L30,20 L15,20 L0,10 L15,0 Z" class="cell_GCLK"/></g><g id="cell_SCE" transform="translate(12,87)" s:height="20" s:type="inputExt" s:width="30"><text x="15" y="-4" class="nodelabel cell_SCE" s:attribute="ref">SCE</text><s:alias val="$_inputExt_"/><path d="M0,0 L0,20 L15,20 L30,10 L15,0 Z" class="cell_SCE"/></g><g id="cell_GATE" transform="translate(12,22)" s:height="20" s:type="inputExt" s:width="30"><text x="15" y="-4" class="nodelabel cell_GATE" s:attribute="ref">GATE</text><s:alias val="$_inputExt_"/><path d="M0,0 L0,20 L15,20 L30,10 L15,0 Z" class="cell_GATE"/></g><g id="cell_CLK" transform="translate(77,97)" s:height="20" s:type="inputExt" s:width="30"><text x="15" y="-4" class="nodelabel cell_CLK" s:attribute="ref">CLK</text><s:alias val="$_inputExt_"/><path d="M0,0 L0,20 L15,20 L30,10 L15,0 Z" class="cell_CLK"/></g><line x1="334" x2="374" y1="39.5" y2="39.5" class="net_6"/><line x1="105" x2="117" y1="107" y2="107" class="net_5"/><line x1="117" x2="117" y1="107" y2="127" class="net_5"/><line x1="117" x2="349" y1="127" y2="127" class="net_5"/><line x1="349" x2="349" y1="127" y2="54.5" class="net_5"/><circle cx="117" cy="107" r="2" class="net_5" style="fill:#000"/><line x1="349" x2="374" y1="54.5" y2="54.5" class="net_5"/><line x1="105" x2="142" y1="107" y2="107" class="net_5"/><line x1="263" x2="309" y1="39.5" y2="39.5" class="net_7"/><line x1="107" x2="142" y1="39.5" y2="39.5" class="net_9"/><line x1="40" x2="80" y1="32" y2="32" class="net_4"/><line x1="40" x2="52" y1="97" y2="97" class="net_3"/><line x1="52" x2="52" y1="97" y2="47" class="net_3"/><line x1="52" x2="80" y1="47" y2="47" class="net_3"/><line x1="167" x2="232" y1="39.5" y2="39.5" class="net_10"/><line x1="167" x2="182" y1="107" y2="107" class="net_8"/><line x1="182" x2="182" y1="107" y2="59.5" class="net_8"/><line x1="182" x2="232" y1="59.5" y2="59.5" class="net_8"/><line x1="404" x2="439" y1="47" y2="47" class="net_2"/></svg>