<svg xmlns="http://www.w3.org/2000/svg" xmlns:s="https://github.com/nturley/netlistsvg" xmlns:xlink="http://www.w3.org/1999/xlink" width="304" height="174"><style>svg{stroke:#000;fill:none}text{fill:#000;stroke:none;font-size:10px;font-weight:700;font-family:&quot;Courier New&quot;,monospace}.nodelabel{text-anchor:middle}.inputPortLabel{text-anchor:end}</style><g id="cell_$not$./cells/dlrtp/sky130_fd_sc_ms__dlrtp.functional.v:0$1" transform="translate(89,142)" s:height="20" s:type="not" s:width="30"><s:alias val="$_NOT_"/><s:alias val="$not"/><path d="M0,0 L0,20 L20,10 Z" class="cell_$not$./cells/dlrtp/sky130_fd_sc_ms__dlrtp.functional.v:0$1"/><circle cx="23" cy="10" r="3" class="cell_$not$./cells/dlrtp/sky130_fd_sc_ms__dlrtp.functional.v:0$1"/></g><g id="cell_dlatch0" transform="translate(185,66.5)" s:height="40" s:type="generic" s:width="30"><text x="15" y="-4" class="nodelabel cell_dlatch0" s:attribute="ref">udp_dlatch$PR</text><rect width="30" height="60" class="cell_dlatch0" s:generic="body"/><g id="port_dlatch0~D" s:pid="in0" s:x="0" s:y="10"><text x="-3" y="-4" class="inputPortLabel cell_dlatch0" transform="translate(0,10)">D</text></g><g id="port_dlatch0~GATE" s:pid="in0" s:x="0" s:y="10"><text x="-3" y="-4" class="inputPortLabel cell_dlatch0" transform="translate(0,30)">GATE</text></g><g id="port_dlatch0~RESET" s:pid="in0" s:x="0" s:y="10"><text x="-3" y="-4" class="inputPortLabel cell_dlatch0" transform="translate(0,50)">RESET</text></g><g id="port_dlatch0~Q" s:pid="out0" s:x="30" s:y="10"><text x="5" y="-4" class="cell_dlatch0" transform="translate(30,10)" style="fill:#000;stroke:none">Q</text></g></g><g id="cell_Q" transform="translate(262,67)" s:height="20" s:type="outputExt" s:width="30"><text x="15" y="-4" class="nodelabel cell_Q" s:attribute="ref">Q</text><s:alias val="$_outputExt_"/><path d="M30,0 L30,20 L15,20 L0,10 L15,0 Z" class="cell_Q"/></g><g id="cell_RESET_B" transform="translate(12,142)" s:height="20" s:type="inputExt" s:width="30"><text x="15" y="-4" class="nodelabel cell_RESET_B" s:attribute="ref">RESET_B</text><s:alias val="$_inputExt_"/><path d="M0,0 L0,20 L15,20 L30,10 L15,0 Z" class="cell_RESET_B"/></g><g id="cell_D" transform="translate(89,22)" s:height="20" s:type="inputExt" s:width="30"><text x="15" y="-4" class="nodelabel cell_D" s:attribute="ref">D</text><s:alias val="$_inputExt_"/><path d="M0,0 L0,20 L15,20 L30,10 L15,0 Z" class="cell_D"/></g><g id="cell_GATE" transform="translate(89,87)" s:height="20" s:type="inputExt" s:width="30"><text x="15" y="-4" class="nodelabel cell_GATE" s:attribute="ref">GATE</text><s:alias val="$_inputExt_"/><path d="M0,0 L0,20 L15,20 L30,10 L15,0 Z" class="cell_GATE"/></g><line x1="40" x2="89" y1="152" y2="152" class="net_3"/><line x1="117" x2="129" y1="32" y2="32" class="net_4"/><line x1="129" x2="129" y1="32" y2="77" class="net_4"/><line x1="129" x2="185" y1="77" y2="77" class="net_4"/><line x1="117" x2="185" y1="97" y2="97" class="net_5"/><line x1="114" x2="129" y1="152" y2="152" class="net_6"/><line x1="129" x2="129" y1="152" y2="117" class="net_6"/><line x1="129" x2="185" y1="117" y2="117" class="net_6"/><line x1="216" x2="262" y1="77" y2="77" class="net_2"/></svg>