<svg xmlns="http://www.w3.org/2000/svg" xmlns:s="https://github.com/nturley/netlistsvg" xmlns:xlink="http://www.w3.org/1999/xlink" width="379" height="119"><style>svg{stroke:#000;fill:none}text{fill:#000;stroke:none;font-size:10px;font-weight:700;font-family:&quot;Courier New&quot;,monospace}.nodelabel{text-anchor:middle}</style><g id="cell_$not$./cells/o21ba/sky130_fd_sc_ms__o21ba.functional.v:0$2" transform="translate(142,79.5)" s:height="20" s:type="not" s:width="30"><s:alias val="$_NOT_"/><s:alias val="$not"/><path d="M0,0 L0,20 L20,10 Z" class="cell_$not$./cells/o21ba/sky130_fd_sc_ms__o21ba.functional.v:0$2"/><circle cx="23" cy="10" r="3" class="cell_$not$./cells/o21ba/sky130_fd_sc_ms__o21ba.functional.v:0$2"/></g><g id="cell_$not$./cells/o21ba/sky130_fd_sc_ms__o21ba.functional.v:0$4" transform="translate(272,72)" s:height="20" s:type="not" s:width="30"><s:alias val="$_NOT_"/><s:alias val="$not"/><path d="M0,0 L0,20 L20,10 Z" class="cell_$not$./cells/o21ba/sky130_fd_sc_ms__o21ba.functional.v:0$4"/><circle cx="23" cy="10" r="3" class="cell_$not$./cells/o21ba/sky130_fd_sc_ms__o21ba.functional.v:0$4"/></g><g id="cell_$or$./cells/o21ba/sky130_fd_sc_ms__o21ba.functional.v:54$1" transform="translate(77,77)" s:height="25" s:type="or" s:width="30"><s:alias val="$or"/><s:alias val="$logic_or"/><s:alias val="$_OR_"/><path d="M0,25 L0,25 L15,25 A15 12.5 0 0 0 15,0 L0,0" class="cell_$or$./cells/o21ba/sky130_fd_sc_ms__o21ba.functional.v:54$1"/><path d="M0,0 A30 25 0 0 1 0,25" class="cell_$or$./cells/o21ba/sky130_fd_sc_ms__o21ba.functional.v:54$1"/></g><g id="cell_$or$./cells/o21ba/sky130_fd_sc_ms__o21ba.functional.v:55$3" transform="translate(207,69.5)" s:height="25" s:type="or" s:width="30"><s:alias val="$or"/><s:alias val="$logic_or"/><s:alias val="$_OR_"/><path d="M0,25 L0,25 L15,25 A15 12.5 0 0 0 15,0 L0,0" class="cell_$or$./cells/o21ba/sky130_fd_sc_ms__o21ba.functional.v:55$3"/><path d="M0,0 A30 25 0 0 1 0,25" class="cell_$or$./cells/o21ba/sky130_fd_sc_ms__o21ba.functional.v:55$3"/></g><g id="cell_X" transform="translate(337,72)" s:height="20" s:type="outputExt" s:width="30"><text x="15" y="-4" class="nodelabel cell_X" s:attribute="ref">X</text><s:alias val="$_outputExt_"/><path d="M30,0 L30,20 L15,20 L0,10 L15,0 Z" class="cell_X"/></g><g id="cell_A1" transform="translate(12,22)" s:height="20" s:type="inputExt" s:width="30"><text x="15" y="-4" class="nodelabel cell_A1" s:attribute="ref">A1</text><s:alias val="$_inputExt_"/><path d="M0,0 L0,20 L15,20 L30,10 L15,0 Z" class="cell_A1"/></g><g id="cell_A2" transform="translate(12,87)" s:height="20" s:type="inputExt" s:width="30"><text x="15" y="-4" class="nodelabel cell_A2" s:attribute="ref">A2</text><s:alias val="$_inputExt_"/><path d="M0,0 L0,20 L15,20 L30,10 L15,0 Z" class="cell_A2"/></g><g id="cell_B1_N" transform="translate(142,24.5)" s:height="20" s:type="inputExt" s:width="30"><text x="15" y="-4" class="nodelabel cell_B1_N" s:attribute="ref">B1_N</text><s:alias val="$_inputExt_"/><path d="M0,0 L0,20 L15,20 L30,10 L15,0 Z" class="cell_B1_N"/></g><line x1="107" x2="142" y1="89.5" y2="89.5" class="net_6"/><line x1="237" x2="272" y1="82" y2="82" class="net_8"/><line x1="40" x2="52" y1="32" y2="32" class="net_3"/><line x1="52" x2="52" y1="32" y2="82" class="net_3"/><line x1="52" x2="80" y1="82" y2="82" class="net_3"/><line x1="40" x2="80" y1="97" y2="97" class="net_4"/><line x1="170" x2="182" y1="34.5" y2="34.5" class="net_5"/><line x1="182" x2="182" y1="34.5" y2="74.5" class="net_5"/><line x1="182" x2="210" y1="74.5" y2="74.5" class="net_5"/><line x1="167" x2="210" y1="89.5" y2="89.5" class="net_7"/><line x1="297" x2="337" y1="82" y2="82" class="net_2"/></svg>