<svg xmlns="http://www.w3.org/2000/svg" xmlns:s="https://github.com/nturley/netlistsvg" xmlns:xlink="http://www.w3.org/1999/xlink" width="184" height="119"><style>svg{stroke:#000;fill:none}text{fill:#000;stroke:none;font-size:10px;font-weight:700;font-family:&quot;Courier New&quot;,monospace}.nodelabel{text-anchor:middle}</style><g id="cell_$and$./cells/and2/sky130_fd_sc_ms__and2.functional.v:48$1" transform="translate(77,27)" s:height="25" s:type="and" s:width="30"><s:alias val="$and"/><s:alias val="$logic_and"/><s:alias val="$_AND_"/><path d="M0,0 L0,25 L15,25 A15 12.5 0 0 0 15,0 Z" class="cell_$and$./cells/and2/sky130_fd_sc_ms__and2.functional.v:48$1"/></g><g id="cell_X" transform="translate(142,29.5)" s:height="20" s:type="outputExt" s:width="30"><text x="15" y="-4" class="nodelabel cell_X" s:attribute="ref">X</text><s:alias val="$_outputExt_"/><path d="M30,0 L30,20 L15,20 L0,10 L15,0 Z" class="cell_X"/></g><g id="cell_A" transform="translate(12,22)" s:height="20" s:type="inputExt" s:width="30"><text x="15" y="-4" class="nodelabel cell_A" s:attribute="ref">A</text><s:alias val="$_inputExt_"/><path d="M0,0 L0,20 L15,20 L30,10 L15,0 Z" class="cell_A"/></g><g id="cell_B" transform="translate(12,87)" s:height="20" s:type="inputExt" s:width="30"><text x="15" y="-4" class="nodelabel cell_B" s:attribute="ref">B</text><s:alias val="$_inputExt_"/><path d="M0,0 L0,20 L15,20 L30,10 L15,0 Z" class="cell_B"/></g><line x1="40" x2="77" y1="32" y2="32" class="net_3"/><line x1="40" x2="52" y1="97" y2="97" class="net_4"/><line x1="52" x2="52" y1="97" y2="47" class="net_4"/><line x1="52" x2="77" y1="47" y2="47" class="net_4"/><line x1="107" x2="142" y1="39.5" y2="39.5" class="net_2"/></svg>