<svg xmlns="http://www.w3.org/2000/svg" xmlns:xlink="http://www.w3.org/1999/xlink" width="191" height="268" version="1.1" viewBox="-25 -56 191 268" xml:space="preserve"><style type="text/css">.fnt1{fill:#000;font-family:Times;font-style:italic}.fnt1,.fnt2{font-size:12pt;font-weight:400}.fnt2,.fnt3,.fnt4{fill:#000;font-family:Helvetica;font-style:normal}.fnt3{font-size:16pt;font-weight:700}.fnt4{font-size:10pt}</style><defs><marker id="clock" markerHeight="15" markerUnits="userSpaceOnUse" markerWidth="8" orient="auto" refX=".5" refY="7.5" viewBox="0 0 8 15"><g><path fill="#FFF" stroke="#000" stroke-width="1" d="M 0 -7 L 0 7 L 7 0 z" transform="translate(0.5,7.5)"/></g></marker></defs><rect width="100%" height="100%" x="-25" y="-56" fill="#fff"/><g transform="translate(0,0)"><rect width="140" height="61" x="0" y="-21" fill="#CCFED2" stroke="#000" stroke-width="1"/><text x="70" y="-5" class="fnt1" dy="5.5" text-anchor="middle">Data Signals</text><g transform="translate(0,19)"><line x1="-20" x2="0" y1="0" y2="0" fill="none" stroke="#000" stroke-width="1"/><text x="10" y="0" class="fnt2" dy="5.5" text-anchor="normal">D</text></g><g transform="translate(140,19)"><line x1="20" x2="0" y1="0" y2="0" fill="none" stroke="#000" stroke-width="1"/><text x="-10" y="0" class="fnt2" dy="5.5" text-anchor="end">Q</text></g></g><g transform="translate(0,61.0)"><rect width="140" height="83" x="0" y="-21" fill="#E7FDBA" stroke="#000" stroke-width="1"/><text x="70" y="-5" class="fnt1" dy="5.5" text-anchor="middle">Scan Chain</text><g transform="translate(0,19)"><line x1="-20" x2="0" y1="0" y2="0" fill="none" stroke="#000" stroke-width="1"/><text x="10" y="0" class="fnt2" dy="5.5" text-anchor="normal">SCD</text></g><g transform="translate(0,41)"><line x1="-20" x2="0" y1="0" y2="0" fill="none" stroke="#000" stroke-width="1"/><text x="10" y="0" class="fnt2" dy="5.5" text-anchor="normal">SCE</text></g></g><g transform="translate(0,144.0)"><rect width="140" height="61" x="0" y="-21" fill="#FACEAD" stroke="#000" stroke-width="1"/><text x="70" y="-5" class="fnt1" dy="5.5" text-anchor="middle">Clocking</text><g transform="translate(0,19)"><line x1="-20" x2="0" y1="0" y2="0" fill="none" stroke="#000" stroke-width="1" marker-end="url(#clock)"/><text x="10" y="0" class="fnt2" dy="5.5" text-anchor="normal">CLK</text></g></g><rect width="138" height="203" x="1" y="-20" fill="none" stroke="#000" stroke-width="3"/><text x="70" y="-30" class="fnt3" dy="-1" text-anchor="middle">sdfxtp</text><text x="70" y="203" class="fnt4" dy="1" text-anchor="middle">sky130_fd_sc_ms</text></svg>