<svg xmlns="http://www.w3.org/2000/svg" xmlns:s="https://github.com/nturley/netlistsvg" xmlns:xlink="http://www.w3.org/1999/xlink" width="276" height="119.5"><style>svg{stroke:#000;fill:none}text{fill:#000;stroke:none;font-size:10px;font-weight:700;font-family:&quot;Courier New&quot;,monospace}.nodelabel{text-anchor:middle}.inputPortLabel{text-anchor:end}</style><g id="cell_$not$./cells/dfxbp/sky130_fd_sc_ms__dfxbp.functional.v:0$1" transform="translate(169,22.5)" s:height="20" s:type="not" s:width="30"><s:alias val="$_NOT_"/><s:alias val="$not"/><path d="M0,0 L0,20 L20,10 Z" class="cell_$not$./cells/dfxbp/sky130_fd_sc_ms__dfxbp.functional.v:0$1"/><circle cx="23" cy="10" r="3" class="cell_$not$./cells/dfxbp/sky130_fd_sc_ms__dfxbp.functional.v:0$1"/></g><g id="cell_dff0" transform="translate(96,22)" s:height="40" s:type="generic" s:width="30"><text x="15" y="-4" class="nodelabel cell_dff0" s:attribute="ref">udp_dff$P</text><rect width="30" height="40" class="cell_dff0" s:generic="body"/><g id="port_dff0~CLK" s:pid="in0" s:x="0" s:y="10"><text x="-3" y="-4" class="inputPortLabel cell_dff0" transform="translate(0,10)">CLK</text></g><g id="port_dff0~D" s:pid="in0" s:x="0" s:y="10"><text x="-3" y="-4" class="inputPortLabel cell_dff0" transform="translate(0,30)">D</text></g><g id="port_dff0~Q" s:pid="out0" s:x="30" s:y="10"><text x="5" y="-4" class="cell_dff0" transform="translate(30,10)" style="fill:#000;stroke:none">Q</text></g></g><g id="cell_Q" transform="translate(234,87.5)" s:height="20" s:type="outputExt" s:width="30"><text x="15" y="-4" class="nodelabel cell_Q" s:attribute="ref">Q</text><s:alias val="$_outputExt_"/><path d="M30,0 L30,20 L15,20 L0,10 L15,0 Z" class="cell_Q"/></g><g id="cell_Q_N" transform="translate(234,22.5)" s:height="20" s:type="outputExt" s:width="30"><text x="15" y="-4" class="nodelabel cell_Q_N" s:attribute="ref">Q_N</text><s:alias val="$_outputExt_"/><path d="M30,0 L30,20 L15,20 L0,10 L15,0 Z" class="cell_Q_N"/></g><g id="cell_CLK" transform="translate(12,22.5)" s:height="20" s:type="inputExt" s:width="30"><text x="15" y="-4" class="nodelabel cell_CLK" s:attribute="ref">CLK</text><s:alias val="$_inputExt_"/><path d="M0,0 L0,20 L15,20 L30,10 L15,0 Z" class="cell_CLK"/></g><g id="cell_D" transform="translate(12,87.5)" s:height="20" s:type="inputExt" s:width="30"><text x="15" y="-4" class="nodelabel cell_D" s:attribute="ref">D</text><s:alias val="$_inputExt_"/><path d="M0,0 L0,20 L15,20 L30,10 L15,0 Z" class="cell_D"/></g><line x1="127" x2="169" y1="32.5" y2="32.5" class="net_2"/><line x1="127" x2="144" y1="32.5" y2="32.5" class="net_2"/><line x1="144" x2="144" y1="32.5" y2="97.5" class="net_2"/><circle cx="144" cy="32.5" r="2" class="net_2" style="fill:#000"/><line x1="144" x2="234" y1="97.5" y2="97.5" class="net_2"/><line x1="40" x2="96" y1="32.5" y2="32.5" class="net_4"/><line x1="40" x2="52" y1="97.5" y2="97.5" class="net_5"/><line x1="52" x2="52" y1="97.5" y2="52.5" class="net_5"/><line x1="52" x2="96" y1="52.5" y2="52.5" class="net_5"/><line x1="194" x2="234" y1="32.5" y2="32.5" class="net_3"/></svg>